<?xml version="1.0" encoding="utf-8"?>
<!-- Generator: Adobe Illustrator 24.1.1, SVG Export Plug-In . SVG Version: 6.00 Build 0)  -->
<svg version="1.1" id="Layer_1" xmlns="http://www.w3.org/2000/svg" xmlns:xlink="http://www.w3.org/1999/xlink" x="0px" y="0px"
	 viewBox="0 0 292 58" style="enable-background:new 0 0 292 58;" xml:space="preserve">
<style type="text/css">
	.st0{fill:#FFFFFF;stroke:#FFFFFF;stroke-miterlimit:10;}
	.st1{fill:url(#SVGID_1_);}
</style>
<g>
	<g>
		<path class="st0" d="M39.4,40.6V14.2H43v17l11.3-9.8h4.6l-8.3,7.5l8.7,11.7h-4.3l-7.1-9.5L43,35v5.6L39.4,40.6z"/>
		<path class="st0" d="M68.9,41c-1.1,0-2.1-0.1-3-0.3c-0.9-0.2-1.8-0.5-2.5-0.9c-0.7-0.4-1.3-1-1.7-1.7c-0.4-0.7-0.6-1.5-0.6-2.6
			c0-1.6,0.4-2.8,1.3-3.7c0.9-0.9,2.1-1.5,3.7-1.9c1.6-0.4,3.4-0.6,5.5-0.7c2.1-0.1,4.3-0.1,6.7-0.1V28c0-1.1-0.2-2-0.6-2.6
			c-0.4-0.6-1.1-1.1-2-1.3c-0.9-0.3-2.2-0.4-3.9-0.4c-1.4,0-2.5,0.1-3.4,0.3c-0.9,0.2-1.6,0.5-2.1,0.9s-0.7,0.9-0.7,1.4V27h-3.5
			c0-0.1,0-0.2-0.1-0.3c0-0.1,0-0.2,0-0.4c0-1.2,0.4-2.2,1.1-3c0.8-0.8,1.9-1.4,3.4-1.9c1.5-0.4,3.4-0.7,5.6-0.7
			c2.1,0,3.9,0.2,5.4,0.6c1.4,0.4,2.5,1.1,3.2,2.1s1.1,2.3,1.1,3.9v9.2c0,0.5,0.1,0.8,0.3,1.1c0.2,0.2,0.5,0.3,1,0.3h1.8v2.3
			c-0.4,0.1-0.8,0.2-1.4,0.3c-0.6,0.1-1.1,0.2-1.6,0.2c-0.9,0-1.7-0.1-2.2-0.4c-0.5-0.3-0.8-0.7-1-1.2s-0.3-1.1-0.3-1.7h-0.3
			c-0.7,0.7-1.5,1.3-2.5,1.9c-1,0.5-2.1,0.9-3.2,1.1C71.3,40.6,69.9,41,68.9,41z M69.6,38.1c1,0,2-0.1,3-0.3s1.9-0.6,2.8-1
			c0.9-0.4,1.6-1,2.1-1.6s0.8-1.3,0.8-2v-1.5c-3,0-5.5,0.1-7.5,0.3c-2,0.2-3.5,0.5-4.5,1.1c-1,0.5-1.5,1.3-1.5,2.4
			c0,0.7,0.2,1.2,0.7,1.6c0.5,0.4,1.1,0.6,1.9,0.8S68.8,38.1,69.6,38.1z"/>
		<path class="st0" d="M89.6,47.5c-0.6,0-1.1,0-1.6-0.1s-1-0.2-1.4-0.3v-2.4h2.1c1.2,0,2.2-0.1,2.9-0.4c0.7-0.3,1.3-0.7,1.7-1.3
			c0.5-0.6,0.9-1.4,1.3-2.4l-9.5-19.2h4l4.7,10c0.2,0.4,0.5,1,0.8,1.7s0.6,1.4,0.9,2.1c0.3,0.7,0.6,1.4,0.9,1.9h0.3
			c0.1-0.2,0.2-0.6,0.4-1c0.2-0.5,0.4-1,0.6-1.6s0.5-1.2,0.7-1.8s0.5-1.1,0.7-1.6l4-9.7h3.8l-8,18.5c-0.6,1.3-1.1,2.4-1.7,3.4
			c-0.5,0.9-1.2,1.7-1.8,2.4c-0.7,0.6-1.5,1.1-2.4,1.4C91.9,47.4,90.8,47.5,89.6,47.5z"/>
		<path class="st0" d="M116.6,41c-1.1,0-2.1-0.1-3-0.3s-1.8-0.5-2.5-0.9s-1.3-1-1.7-1.7s-0.6-1.5-0.6-2.6c0-1.6,0.4-2.8,1.3-3.7
			c0.9-0.9,2.1-1.5,3.7-1.9c1.6-0.4,3.4-0.6,5.5-0.7s4.3-0.1,6.7-0.1V28c0-1.1-0.2-2-0.6-2.6c-0.4-0.6-1.1-1.1-2-1.3
			c-0.9-0.3-2.2-0.4-3.9-0.4c-1.4,0-2.5,0.1-3.4,0.3c-0.9,0.2-1.6,0.5-2.1,0.9s-0.7,0.9-0.7,1.4V27h-3.5c0-0.1,0-0.2-0.1-0.3
			c0-0.1,0-0.2,0-0.4c0-1.2,0.4-2.2,1.1-3c0.8-0.8,1.9-1.4,3.4-1.9c1.5-0.4,3.4-0.7,5.6-0.7c2.1,0,3.9,0.2,5.4,0.6
			c1.4,0.4,2.5,1.1,3.2,2.1s1.1,2.3,1.1,3.9v9.2c0,0.5,0.1,0.8,0.3,1.1c0.2,0.2,0.5,0.3,1,0.3h1.8v2.3c-0.4,0.1-0.8,0.2-1.4,0.3
			s-1.1,0.2-1.6,0.2c-0.9,0-1.7-0.1-2.2-0.4c-0.5-0.3-0.8-0.7-1-1.2s-0.3-1.1-0.3-1.7h-0.3c-0.7,0.7-1.5,1.3-2.5,1.9
			c-1,0.5-2.1,0.9-3.2,1.1S117.9,41,116.6,41z M117.4,38.1c1,0,2-0.1,3-0.3s1.9-0.6,2.8-1c0.9-0.4,1.6-1,2.1-1.6s0.8-1.3,0.8-2v-1.5
			c-3,0-5.5,0.1-7.5,0.3c-2,0.2-3.5,0.5-4.5,1.1c-1,0.5-1.5,1.3-1.5,2.4c0,0.7,0.2,1.2,0.7,1.6c0.5,0.4,1.1,0.6,1.9,0.8
			S116.6,38.1,117.4,38.1z"/>
		<path class="st0" d="M182.4,41c-2.4,0-4.4-0.4-6-1.1s-2.9-1.9-3.7-3.4c-0.9-1.5-1.3-3.3-1.3-5.6c0-2.2,0.4-4.1,1.3-5.5
			c0.8-1.5,2.1-2.6,3.7-3.4s3.6-1.1,6-1.1s4.4,0.4,6,1.1c1.6,0.8,2.9,1.9,3.7,3.4c0.9,1.5,1.3,3.3,1.3,5.5s-0.4,4.1-1.3,5.6
			s-2.1,2.6-3.7,3.4C186.6,40.6,184.6,41,182.4,41z M182.4,38.1c1.4,0,2.7-0.2,3.8-0.7s1.9-1.2,2.6-2.2c0.6-1,0.9-2.3,0.9-3.9v-0.7
			c0-1.6-0.3-2.9-0.9-3.9c-0.6-1-1.5-1.7-2.6-2.2s-2.4-0.7-3.8-0.7s-2.7,0.2-3.8,0.7s-2,1.2-2.6,2.2s-0.9,2.3-0.9,3.9v0.7
			c0,1.6,0.3,2.9,0.9,3.9c0.6,1,1.5,1.8,2.6,2.2S180.9,38.1,182.4,38.1z"/>
		<path class="st0" d="M198.1,40.6V21.4h2.8l0.3,3.4h0.3c0.7-1,1.5-1.8,2.5-2.3s1.9-0.9,2.9-1.2c1-0.2,2-0.3,2.9-0.3
			c1.7,0,3.2,0.3,4.3,0.8c1.2,0.5,2,1.3,2.6,2.4s0.9,2.5,0.9,4.2v12.2H214V29c0-1-0.1-1.9-0.4-2.6c-0.3-0.7-0.6-1.2-1.1-1.5
			c-0.5-0.4-1.1-0.6-1.7-0.7c-0.7-0.1-1.4-0.2-2.2-0.2c-1.2,0-2.3,0.2-3.4,0.7s-1.9,1.2-2.6,2.1c-0.7,0.9-1,1.9-1,3.2v10.6H198.1z"
			/>
		<path class="st0" d="M223.1,17.7v-3.5h3.6v3.5H223.1z M223.1,40.6V21.4h3.6v19.2H223.1z"/>
		<path class="st0" d="M242.5,41c-2.4,0-4.4-0.4-6.1-1.1c-1.6-0.8-2.9-1.9-3.7-3.4s-1.2-3.3-1.2-5.6c0-2.2,0.4-4.1,1.2-5.5
			c0.8-1.5,2.1-2.6,3.7-3.4s3.7-1.1,6.1-1.1c1.4,0,2.7,0.2,4,0.5c1.2,0.3,2.3,0.8,3.2,1.5c0.9,0.7,1.6,1.5,2.1,2.4s0.8,2.1,0.8,3.4
			H249c0-1.1-0.3-2-0.9-2.7s-1.4-1.2-2.4-1.6s-2-0.5-3.1-0.5c-1.4,0-2.7,0.2-3.8,0.7s-2,1.2-2.6,2.2s-0.9,2.3-0.9,3.9v0.7
			c0,1.6,0.3,2.9,0.9,3.9s1.5,1.8,2.6,2.2c1.1,0.5,2.4,0.7,3.8,0.7c1.1,0,2.1-0.2,3.1-0.5c1-0.4,1.8-0.9,2.4-1.6
			c0.6-0.7,0.9-1.6,0.9-2.7h3.5c0,1.3-0.3,2.4-0.8,3.4s-1.2,1.8-2.1,2.4c-0.9,0.6-2,1.1-3.2,1.5C245.3,40.9,244,41,242.5,41z"/>
	</g>
	<g>
		<g>
			<g>
				<g>
					<linearGradient id="SVGID_1_" gradientUnits="userSpaceOnUse" x1="138.45" y1="29" x2="165.65" y2="29">
						<stop  offset="0.2346" style="stop-color:#FC56EC"/>
						<stop  offset="1" style="stop-color:#980DE0"/>
					</linearGradient>
					<polygon class="st1" points="165.6,26.8 151.3,41.9 150.4,42.7 149.3,44 142.4,51.1 145.6,43.3 149.6,33.3 138.4,31.2 
						153.6,15.3 161.6,6.9 154.6,24.7 					"/>
				</g>
			</g>
		</g>
	</g>
</g>
</svg>
